# xmcd
#
# Track frame offsets:
#	150
#	19970
#	40139
#	61414
#	78520
#	96044
#	112728
#	132246
#	150364
#	168774
#
# Disc length: 2462 seconds
#
# Revision: 0
# Processed by: cddbd v1.5.2PL0 Copyright (c) Steve Scherf et al.
# Submitted via: EasyCDDAExtractor 16.0.6.1
#
DISCID=6d099c0a
DTITLE=李慧珍 - 寻找·李慧珍
DYEAR=1900
DGENRE=Country
TTITLE0=欲望敦煌
TTITLE1=寻找李慧珍
TTITLE2=远行
TTITLE3=蓝色魔力
TTITLE4=距离
TTITLE5=自由的味道
TTITLE6=珍重
TTITLE7=咖啡的时间
TTITLE8=幸福的眼泪
TTITLE9=My Way
EXTD=
EXTT0=
EXTT1=
EXTT2=
EXTT3=
EXTT4=
EXTT5=
EXTT6=
EXTT7=
EXTT8=
EXTT9=
PLAYORDER=
